<svg width="22" height="22" viewBox="0 0 22 22" fill="none" xmlns="http://www.w3.org/2000/svg">
<path d="M10.9999 9.16667C12.055 9.16667 12.8333 8.38933 12.8333 7.33333C12.8333 6.27733 12.055 5.5 10.9999 5.5C9.94575 5.5 9.16659 6.27733 9.16659 7.33333C9.16659 8.38933 9.94575 9.16667 10.9999 9.16667ZM10.9999 10.0833C8.975 10.0833 7.33325 11.561 7.33325 13.3833V13.7372H14.6666V13.3833C14.6666 11.561 13.0248 10.0833 10.9999 10.0833Z" fill="#323A46"/>
<path d="M17.4167 1.83334H4.58333C3.57225 1.83334 2.75 2.65559 2.75 3.66668V15.5833C2.75 16.5944 3.57225 17.4167 4.58333 17.4167H8.25L11 20.1667L13.75 17.4167H17.4167C18.4278 17.4167 19.25 16.5944 19.25 15.5833V3.66668C19.25 2.65559 18.4278 1.83334 17.4167 1.83334ZM12.8333 15.5833L11 17.4167L9.16667 15.5833H4.58333V3.66668H17.4167L17.4185 15.5833H12.8333Z" fill="#323A46"/>
</svg>
